<svg width="30" height="30" viewBox="0 0 30 30" fill="none" xmlns="http://www.w3.org/2000/svg">
<path d="M11.25 12.5C11.25 11.7583 11.4699 11.0333 11.882 10.4166C12.294 9.79993 12.8797 9.31928 13.5649 9.03545C14.2502 8.75162 15.0042 8.67736 15.7316 8.82206C16.459 8.96675 17.1272 9.32391 17.6517 9.84835C18.1761 10.3728 18.5333 11.041 18.6779 11.7684C18.8226 12.4958 18.7484 13.2498 18.4645 13.9351C18.1807 14.6203 17.7001 15.206 17.0834 15.618C16.4667 16.0301 15.7417 16.25 15 16.25V17.5M26.25 15C26.25 21.2132 21.2132 26.25 15 26.25C8.7868 26.25 3.75 21.2132 3.75 15C3.75 8.7868 8.7868 3.75 15 3.75C21.2132 3.75 26.25 8.7868 26.25 15Z" stroke="#292929" stroke-width="2" stroke-linecap="round" stroke-linejoin="round"/>
<circle cx="15" cy="21.25" r="1.25" fill="#292929"/>
</svg>
